<?xml version="1.0" encoding="UTF-8"?>
<svg version="1.1" xmlns="http://www.w3.org/2000/svg" width="225" height="225">
<path d="M0 0 C74.25 0 148.5 0 225 0 C225 74.25 225 148.5 225 225 C150.75 225 76.5 225 0 225 C0 150.75 0 76.5 0 0 Z " fill="#F7F7F7" transform="translate(0,0)"/>
<path d="M0 0 C74.25 0 148.5 0 225 0 C225 74.25 225 148.5 225 225 C150.75 225 76.5 225 0 225 C0 150.75 0 76.5 0 0 Z M41 51 C25.44030626 71.2130601 18.94099915 93.66036399 21 119 C21.74332012 124.51357085 23.24465769 129.73397307 25 135 C23.948125 135.04125 22.89625 135.0825 21.8125 135.125 C16.77499181 136.28114942 15.88774831 137.83824509 13 142 C11.42829004 145.14341993 11.76824217 148.55771451 12 152 C12.33 152.99 12.66 153.98 13 155 C12.0409375 156.36125 12.0409375 156.36125 11.0625 157.75 C8.1688049 162.30976198 8.59766473 165.6865722 9.5 170.875 C9.9372599 173.60787435 9.94514214 175.76482762 9.8125 178.5 C9.79691338 183.15260698 10.7922211 185.47926706 14 189 C28.62050328 201.24266319 50.08318157 206.14244224 68.6875 206.3125 C69.72583984 206.34150391 70.76417969 206.37050781 71.83398438 206.40039062 C80.25187246 206.46900037 87.00080802 204.95224179 93.84716797 199.89819336 C98.98032657 196.80772502 104.38521148 197.33205044 110.20288086 197.36865234 C112.29819821 197.37495697 114.38780542 197.32807755 116.48242188 197.27734375 C123.9914895 197.20779775 129.13081451 197.83492494 135.12744141 202.5546875 C143.56980486 209.07082722 160.41904357 206.95508113 170.41845703 205.6953125 C175.07956198 204.86459955 179.5135626 203.51733374 184 202 C185.0204541 201.66258789 185.0204541 201.66258789 186.06152344 201.31835938 C203.22185173 195.78193384 203.22185173 195.78193384 215 183 C215.04560393 180.83381332 215.03834208 178.66632738 215 176.5 C214.88888889 170.22222222 214.88888889 170.22222222 216 168 C215.95705429 162.53515833 215.05623661 158.58435491 212 154 C212.33 153.34 212.66 152.68 213 152 C213.39231417 147.29223 213.47336758 144.92920303 211.3125 140.6875 C208.97188826 137.96732961 207.27477417 136.43770573 204 135 C202.33391522 134.95596252 200.66591467 134.94993913 199 135 C199.20496094 134.20335937 199.40992188 133.40671875 199.62109375 132.5859375 C199.89050781 131.52632813 200.15992188 130.46671875 200.4375 129.375 C200.70433594 128.33085937 200.97117188 127.28671875 201.24609375 126.2109375 C206.39138772 104.29678391 202.05621391 82.35219385 191 63 C188.56135667 59.1135625 185.92213409 55.53439075 183 52 C182.31292969 51.15050781 181.62585938 50.30101563 180.91796875 49.42578125 C166.54552004 32.51549475 144.79664201 20.8380028 122.62939453 18.67041016 C91.12044972 16.76671751 61.79459802 26.34354806 41 51 Z " fill="#000000" transform="translate(0,0)"/>
<path d="M0 0 C3.50812317 2.83464394 6.76471498 5.86070075 10 9 C10.62519531 9.55171875 11.25039062 10.1034375 11.89453125 10.671875 C22.98348202 20.7845976 31.80436892 38.94680871 33 54 C33.70364693 72.80730297 33.70364693 72.80730297 32 81 C31.01 81.495 31.01 81.495 30 82 C29.34 81.67 28.68 81.34 28 81 C22.7440244 80.47612008 18.37135331 80.28892792 13.625 82.75 C12.325625 83.86375 12.325625 83.86375 11 85 C10.05125 85.7425 9.1025 86.485 8.125 87.25 C7.42375 87.8275 6.7225 88.405 6 89 C5.38125 88.319375 5.38125 88.319375 4.75 87.625 C1.79920783 84.8849787 -0.28672909 84.09420559 -4.3125 83.5625 C-9.01965327 84.12097581 -11.5787699 85.77975536 -15 89 C-16.66692434 91.45207723 -17.82829229 94.03282545 -19 96.75 C-22.00717787 103.21715143 -25.34227515 108.56598767 -30 114 C-31.27973825 115.59707172 -32.55063184 117.20127165 -33.8125 118.8125 C-34.65748047 119.87404297 -34.65748047 119.87404297 -35.51953125 120.95703125 C-38.03163845 124.42360661 -39.25698835 127.01081556 -39.1953125 131.328125 C-39.19031738 132.0490332 -39.18532227 132.76994141 -39.18017578 133.51269531 C-39.16196777 134.41600586 -39.14375977 135.31931641 -39.125 136.25 C-39.08375 139.1375 -39.0425 142.025 -39 145 C-44.94 145 -50.88 145 -57 145 C-56.67 144.01 -56.34 143.02 -56 142 C-55.1876361 133.51645292 -55.0874772 126.50365043 -60.09765625 119.30078125 C-62.09445171 116.8857658 -64.20881711 114.63879252 -66.375 112.375 C-70.87323168 107.611721 -73.52699916 102.5444342 -76.17333984 96.62060547 C-78.51009534 91.49689387 -81.20613632 87.81252577 -86.03515625 84.6796875 C-89.71223599 83.4076957 -93.29074109 84.05618501 -97 85 C-100.00614409 86.88246031 -100.00614409 86.88246031 -102 89 C-102.83144531 88.25943359 -102.83144531 88.25943359 -103.6796875 87.50390625 C-104.40414062 86.86324219 -105.12859375 86.22257812 -105.875 85.5625 C-106.59429687 84.92441406 -107.31359375 84.28632812 -108.0546875 83.62890625 C-111.25131392 80.95221305 -113.26584269 80.84004127 -117.375 80.8125 C-118.80972656 80.79123047 -118.80972656 80.79123047 -120.2734375 80.76953125 C-123.03010017 81.00254428 -124.64947395 81.59079836 -127 83 C-129.50082598 77.20127202 -129.3454226 71.57589975 -129.3125 65.375 C-129.30758545 64.29702148 -129.3026709 63.21904297 -129.29760742 62.10839844 C-129.18818228 54.69442428 -128.63887566 47.98774274 -126 41 C-125.63648438 40.00226563 -125.27296875 39.00453125 -124.8984375 37.9765625 C-116.69521147 16.96571907 -102.05876715 0.89815074 -81.52929688 -8.41674805 C-54.51344435 -19.88877617 -24.29883481 -16.64303754 0 0 Z " fill="#010101" transform="translate(160,43)"/>
<path d="M0 0 C3.62682695 0 5.92026795 0.04368371 8.69165039 2.49829102 C13.11583653 7.68951871 16.82547173 13.11896948 20.375 18.9375 C21.423532 20.63470011 22.47296148 22.3313462 23.5234375 24.02734375 C23.97638184 24.76718506 24.42932617 25.50702637 24.89599609 26.26928711 C25.88482788 27.9567848 25.88482788 27.9567848 27 29 C29.33297433 29.04092937 31.66705225 29.04241723 34 29 C32.59099426 24.51679992 30.32565176 22.24453831 27 19 C24.20836701 15.24573495 23.40296725 12.67675654 24 8 C25.5 5.625 25.5 5.625 27 4 C29.3125 4.1875 29.3125 4.1875 32 5 C33.71378256 7.51655439 35.05478698 10.11094745 36.40234375 12.83984375 C40.08899085 20.27880343 44.35896465 26.19375593 49.91186523 32.32983398 C53.52865402 36.32924065 55.80318157 38.91372465 56.3125 44.3125 C55.72923 51.19508602 52.84363508 56.15636492 48 61 C33.92656125 68.28803078 17.59322907 65.12859076 3 61 C-5.09104519 58.41224181 -13.26960595 55.24970736 -20 50 C-21.0625 47.25 -21.0625 47.25 -21 45 C-20 44 -20 44 -17.3828125 43.71875 C-13.30727686 44.05759361 -10.37918003 45.5482094 -6.875 47.5 C-3.0561864 49.59994209 -0.50815996 51 4 51 C3.57259228 49.03757448 3.57259228 49.03757448 2 47 C-0.63589458 45.56357684 -3.43156785 44.58329349 -6.25 43.5625 C-12.10354035 41.42891969 -16.40706742 39.26382117 -21 35 C-20.67 33.35 -20.34 31.7 -20 30 C-16.52592249 28.8346358 -16.02888107 28.98802039 -12.35546875 30.51171875 C-10.95985403 31.22479687 -9.57067114 31.95057502 -8.1875 32.6875 C-7.50107422 33.04005859 -6.81464844 33.39261719 -6.10742188 33.75585938 C-2.73732904 35.49989039 0.57694888 37.31899455 3.859375 39.22265625 C6.37724359 40.64756944 8.18546511 41.54967442 11 42 C9.65726351 36.99764838 6.81336484 35.14225617 2.5625 32.625 C1.94084961 32.24142334 1.31919922 31.85784668 0.67871094 31.46264648 C-0.59296486 30.67833799 -1.8678834 29.89926285 -3.14599609 29.12548828 C-5.86927526 27.47229932 -8.55998882 25.76914285 -11.25 24.0625 C-12.55710937 23.24458984 -12.55710937 23.24458984 -13.890625 22.41015625 C-16 21 -16 21 -18 19 C-18.125 15.875 -18.125 15.875 -18 13 C-12.8715576 11.59395955 -10.51822006 12.70753661 -5.9609375 15.13671875 C1.05129565 19.54943011 7.37717665 24.9783891 13.73046875 30.27734375 C15.96930066 32.16848083 15.96930066 32.16848083 19 33 C16.85506717 26.82543234 13.75473234 23.33660174 9 18.9375 C1.09288549 11.57318946 1.09288549 11.57318946 -1 6 C-0.6875 2.625 -0.6875 2.625 0 0 Z " fill="#030303" transform="translate(40,132)"/>
<path d="M0 0 C1.1435582 3.90715718 1.20171365 5.57605095 -0.57421875 9.30859375 C-3.40234728 13.99140525 -7.31299299 17.43397234 -11.31054688 21.10546875 C-15.19070473 24.80213586 -17.20336331 27.9361699 -19 33 C-14.28244699 30.88766283 -10.67946981 28.18099974 -6.875 24.75 C-1.15458904 19.77515396 4.84123204 14.72134725 12 12 C15.34765625 12.328125 15.34765625 12.328125 18 13 C18.5 15.625 18.5 15.625 18 19 C13.06934898 23.83233296 6.52540446 27.24086324 0.625 30.75 C-0.96770101 31.70052397 -2.55892107 32.65353514 -4.1484375 33.609375 C-4.84114746 34.02155273 -5.53385742 34.43373047 -6.24755859 34.85839844 C-8.57434243 36.37414673 -9.8303986 37.42335525 -10.625 40.125 C-10.810625 41.053125 -10.810625 41.053125 -11 42 C-7.14841438 40.43402637 -3.47569764 38.764766 0.15625 36.73828125 C0.86910156 36.34189453 1.58195312 35.94550781 2.31640625 35.53710938 C3.77716226 34.71788395 5.23291043 33.88966706 6.68359375 33.05273438 C11.41767717 30.44599224 14.59281012 29.50908408 20 30 C20.495 32.475 20.495 32.475 21 35 C16.07007045 39.47993598 10.41906433 41.54715898 4.33007812 44 C3.15541992 44.495 3.15541992 44.495 1.95703125 45 C1.24522705 45.28875 0.53342285 45.5775 -0.19995117 45.875 C-2.42013181 47.26257526 -3.03840756 48.6045962 -4 51 C1.81051642 50.31691846 5.94074279 48.07706291 11 45.27734375 C14.25157661 43.8928834 16.50446943 43.75552093 20 44 C20.8125 45.6875 20.8125 45.6875 21 48 C17.52323378 52.12865988 14.15467696 54.12060445 9.1875 56.125 C8.56149902 56.37870361 7.93549805 56.63240723 7.29052734 56.89379883 C5.53023882 57.60390224 3.76527423 58.30238303 2 59 C1.29746094 59.31066406 0.59492188 59.62132812 -0.12890625 59.94140625 C-12.6463202 65.29001042 -31.3403299 68.11348349 -44.13671875 62.98046875 C-49.67906682 60.06405498 -53.50904722 56.06623486 -55.6875 50.125 C-56.65735384 43.52999389 -55.93385576 40.37356586 -52 35 C-50.45452165 33.21429185 -48.89107723 31.44401669 -47.3125 29.6875 C-41.97594489 23.55286188 -38.42118142 16.73708479 -34.8125 9.4921875 C-33 6 -33 6 -31 4 C-28.5 4.1875 -28.5 4.1875 -26 5 C-23.62895308 8.55657038 -23.51598888 9.80523694 -24 14 C-26.37445814 19.10068785 -28.56643989 21.52504748 -33 25 C-33.86965506 27.12946603 -33.86965506 27.12946603 -34 29 C-30.75643424 29.75413353 -30.75643424 29.75413353 -27 29 C-24.44028908 26.39199265 -22.82604627 23.14508646 -21 20 C-19.36804998 17.39350068 -17.6869417 14.82113183 -16 12.25 C-15.59676514 11.61247803 -15.19353027 10.97495605 -14.77807617 10.31811523 C-11.26272999 4.92471707 -7.14942157 -1.05138553 0 0 Z " fill="#030303" transform="translate(185,132)"/>
<path d="M0 0 C4.55990182 -0.25519333 7.47658448 0.36400886 11.5625 2.375 C21.05852109 6.98158044 29.68421979 8.82445133 40.1796875 6.20703125 C42.84924917 5.2419958 45.42208502 4.18686185 48 3 C55.71260997 -0.50439883 55.71260997 -0.50439883 60 0 C61 1 61 1 61.375 4.3125 C61.28863124 12.28721573 57.23788368 20.16712395 52 26 C44.31788388 32.29053132 36.94394381 34.51012888 27.0625 34.3125 C19.10599548 33.50061178 12.33267265 29.93123795 7 24 C1.19290029 16.27779293 -0.33986401 9.55395508 0 0 Z " fill="#FAFAFA" transform="translate(81,108)"/>
<path d="M0 0 C3.31377171 2.10702247 6.22692024 4.45384049 8 8 C8.40531506 12.21527659 8.22250532 14.55498937 6.3125 18.375 C4 21 4 21 1.25 21.875 C0.5075 21.91625 -0.235 21.9575 -1 22 C-1.474375 21.154375 -1.94875 20.30875 -2.4375 19.4375 C-4.68562949 16.76737254 -4.68562949 16.76737254 -7.26953125 16.890625 C-9.54446693 17.16290077 -11.7608603 17.51676686 -14 18 C-16.46881666 14.29677501 -16.3272901 12.57182025 -15.7265625 8.296875 C-14.6439468 4.87441247 -12.89109841 3.13368534 -10.02734375 1.04296875 C-6.56888626 -0.73623771 -3.74283418 -1.12797742 0 0 Z " fill="#F7F7F7" transform="translate(144,70)"/>
<path d="M0 0 C3.70390021 2.02666238 5.65363011 3.48044516 8 7 C8.23046875 9.19140625 8.23046875 9.19140625 8.1875 11.5625 C8.18105469 12.34753906 8.17460938 13.13257812 8.16796875 13.94140625 C8 16 8 16 7 18 C6.40832031 17.86980469 5.81664063 17.73960938 5.20703125 17.60546875 C2.72806 17.17276088 0.51704227 16.8771141 -2 17 C-4.81331378 19.39583651 -4.81331378 19.39583651 -7 22 C-9.0625 22.125 -9.0625 22.125 -11 21 C-13.45647775 18.81646422 -14.79740205 17.11834066 -15.390625 13.84375 C-15.57786951 9.8313677 -15.33613028 7.56421868 -13.25 4.0625 C-8.9429216 0.1143448 -5.91201713 -0.61158798 0 0 Z " fill="#F9F9F9" transform="translate(85,70)"/>
<path d="M0 0 C4.11289267 0.85685264 5.59686932 2.20235933 8 5.625 C8.06584389 9.44394541 7.85572029 11.60471812 5.375 14.5625 C1.98831357 16.07759656 -0.33417263 16.14868962 -4 15.625 C-6.66106976 13.23686047 -7.77849624 11.60946115 -8.5625 8.125 C-7.50109364 3.40763841 -4.65431864 0.96964972 0 0 Z " fill="#F3F3F3" transform="translate(167,81.375)"/>
<path d="M0 0 C4.11289267 0.85685264 5.59686932 2.20235933 8 5.625 C8.06584389 9.44394541 7.85572029 11.60471812 5.375 14.5625 C1.98831357 16.07759656 -0.33417263 16.14868962 -4 15.625 C-6.66106976 13.23686047 -7.77849624 11.60946115 -8.5625 8.125 C-7.50109364 3.40763841 -4.65431864 0.96964972 0 0 Z " fill="#F3F3F3" transform="translate(58,81.375)"/>
</svg>
